<svg width="15" height="15" viewBox="0 0 15 15" fill="none" xmlns="http://www.w3.org/2000/svg">
<path d="M14.3919 11.7567H0.608098C0.554338 11.7567 0.50278 11.7354 0.464766 11.6974C0.426752 11.6594 0.405396 11.6078 0.405396 11.554V9.48647C0.405386 9.43974 0.421522 9.39444 0.451072 9.35824C0.480623 9.32204 0.521773 9.29717 0.567558 9.28782C0.97996 9.20408 1.35073 8.98034 1.61705 8.65451C1.88336 8.32868 2.02885 7.9208 2.02885 7.49998C2.02885 7.07916 1.88336 6.67128 1.61705 6.34546C1.35073 6.01963 0.97996 5.79589 0.567558 5.71214C0.521773 5.7028 0.480623 5.67792 0.451072 5.64172C0.421522 5.60552 0.405386 5.56022 0.405396 5.5135V3.44593C0.405396 3.39217 0.426752 3.34061 0.464766 3.3026C0.50278 3.26458 0.554338 3.24323 0.608098 3.24323H14.3919C14.4456 3.24323 14.4972 3.26458 14.5352 3.3026C14.5732 3.34061 14.5946 3.39217 14.5946 3.44593V5.5135C14.5946 5.56022 14.5785 5.60552 14.5489 5.64172C14.5194 5.67792 14.4782 5.7028 14.4324 5.71214C14.02 5.79589 13.6493 6.01963 13.3829 6.34546C13.1166 6.67128 12.9711 7.07916 12.9711 7.49998C12.9711 7.9208 13.1166 8.32868 13.3829 8.65451C13.6493 8.98034 14.02 9.20408 14.4324 9.28782C14.4782 9.29717 14.5194 9.32204 14.5489 9.35824C14.5785 9.39444 14.5946 9.43974 14.5946 9.48647V11.554C14.5946 11.6078 14.5732 11.6594 14.5352 11.6974C14.4972 11.7354 14.4456 11.7567 14.3919 11.7567ZM0.810801 11.3513H14.1892V9.64559C13.7219 9.51347 13.3105 9.23242 13.0176 8.84515C12.7246 8.45788 12.5661 7.98557 12.5661 7.49998C12.5661 7.01439 12.7246 6.54208 13.0176 6.15481C13.3105 5.76754 13.7219 5.4865 14.1892 5.35437V3.64863H0.810801V5.35437C1.27807 5.4865 1.68943 5.76754 1.98238 6.15481C2.27533 6.54208 2.43385 7.01439 2.43385 7.49998C2.43385 7.98557 2.27533 8.45788 1.98238 8.84515C1.68943 9.23242 1.27807 9.51347 0.810801 9.64559V11.3513Z" fill="white"/>
<path d="M10.5405 4.38566C10.4868 4.38566 10.4352 4.3643 10.3972 4.32629C10.3592 4.28827 10.3378 4.23672 10.3378 4.18296V3.44593C10.3378 3.39217 10.3592 3.34061 10.3972 3.3026C10.4352 3.26458 10.4868 3.24323 10.5405 3.24323C10.5943 3.24323 10.6459 3.26458 10.6839 3.3026C10.7219 3.34061 10.7433 3.39217 10.7433 3.44593V4.18296C10.7433 4.23672 10.7219 4.28827 10.6839 4.32629C10.6459 4.3643 10.5943 4.38566 10.5405 4.38566Z" fill="white"/>
<path d="M10.5405 6.22843C10.4868 6.22843 10.4352 6.20707 10.3972 6.16906C10.3592 6.13105 10.3378 6.07949 10.3378 6.02573V5.2887C10.3378 5.23494 10.3592 5.18338 10.3972 5.14537C10.4352 5.10735 10.4868 5.086 10.5405 5.086C10.5943 5.086 10.6459 5.10735 10.6839 5.14537C10.7219 5.18338 10.7433 5.23494 10.7433 5.2887V6.02573C10.7433 6.07949 10.7219 6.13105 10.6839 6.16906C10.6459 6.20707 10.5943 6.22843 10.5405 6.22843Z" fill="white"/>
<path d="M10.5405 8.07121C10.4868 8.07121 10.4352 8.04985 10.3972 8.01184C10.3592 7.97382 10.3378 7.92226 10.3378 7.8685V7.13148C10.3378 7.07771 10.3592 7.02616 10.3972 6.98814C10.4352 6.95013 10.4868 6.92877 10.5405 6.92877C10.5943 6.92877 10.6459 6.95013 10.6839 6.98814C10.7219 7.02616 10.7433 7.07771 10.7433 7.13148V7.86871C10.7432 7.92243 10.7218 7.97394 10.6838 8.01191C10.6458 8.04988 10.5943 8.07121 10.5405 8.07121Z" fill="white"/>
<path d="M10.5405 9.91398C10.4868 9.91398 10.4352 9.89263 10.3972 9.85461C10.3592 9.8166 10.3378 9.76504 10.3378 9.71128V8.97425C10.3378 8.92049 10.3592 8.86893 10.3972 8.83092C10.4352 8.7929 10.4868 8.77155 10.5405 8.77155C10.5943 8.77155 10.6459 8.7929 10.6839 8.83092C10.7219 8.86893 10.7433 8.92049 10.7433 8.97425V9.71128C10.7433 9.76504 10.7219 9.8166 10.6839 9.85461C10.6459 9.89263 10.5943 9.91398 10.5405 9.91398Z" fill="white"/>
<path d="M10.5405 11.7568C10.4868 11.7568 10.4352 11.7354 10.3972 11.6974C10.3592 11.6594 10.3378 11.6078 10.3378 11.5541V10.817C10.3378 10.7633 10.3592 10.7117 10.3972 10.6737C10.4352 10.6357 10.4868 10.6143 10.5405 10.6143C10.5943 10.6143 10.6459 10.6357 10.6839 10.6737C10.7219 10.7117 10.7433 10.7633 10.7433 10.817V11.5541C10.7433 11.6078 10.7219 11.6594 10.6839 11.6974C10.6459 11.7354 10.5943 11.7568 10.5405 11.7568Z" fill="white"/>
<path d="M4.24236 9.63687C4.20228 9.63686 4.1631 9.62497 4.12977 9.60269C4.09644 9.58042 4.07047 9.54876 4.05513 9.51173C4.03979 9.4747 4.03578 9.43395 4.0436 9.39463C4.05141 9.35532 4.07071 9.3192 4.09905 9.29085L7.85554 5.53234C7.87424 5.51298 7.8966 5.49754 7.92133 5.48692C7.94606 5.47629 7.97266 5.4707 7.99958 5.47047C8.02649 5.47023 8.05318 5.47536 8.0781 5.48555C8.10301 5.49575 8.12564 5.5108 8.14467 5.52983C8.1637 5.54886 8.17876 5.57149 8.18895 5.59641C8.19914 5.62132 8.20427 5.64801 8.20403 5.67492C8.2038 5.70184 8.19821 5.72844 8.18759 5.75317C8.17696 5.7779 8.16152 5.80026 8.14216 5.81896L4.38567 9.57768C4.34764 9.61562 4.29609 9.63691 4.24236 9.63687Z" fill="white"/>
<path d="M7.37452 9.7336C7.18934 9.7336 7.00832 9.67869 6.85435 9.5758C6.70037 9.47292 6.58037 9.3267 6.5095 9.15561C6.43864 8.98453 6.4201 8.79627 6.45622 8.61465C6.49235 8.43303 6.58152 8.2662 6.71246 8.13526C6.84341 8.00431 7.01024 7.91514 7.19186 7.87901C7.37348 7.84289 7.56174 7.86143 7.73282 7.93229C7.9039 8.00316 8.05013 8.12317 8.15301 8.27714C8.25589 8.43111 8.3108 8.61213 8.3108 8.79731C8.31048 9.04553 8.21174 9.28349 8.03622 9.45901C7.8607 9.63453 7.62274 9.73328 7.37452 9.7336ZM7.37452 8.26623C7.26953 8.26623 7.1669 8.29736 7.0796 8.35568C6.9923 8.41401 6.92426 8.49691 6.88407 8.5939C6.84388 8.6909 6.83336 8.79763 6.85383 8.9006C6.87429 9.00358 6.92483 9.09817 6.99906 9.17243C7.07328 9.24668 7.16786 9.29726 7.27083 9.31776C7.37379 9.33827 7.48053 9.32779 7.57754 9.28764C7.67455 9.24749 7.75747 9.17947 7.81583 9.0922C7.87419 9.00492 7.90536 8.9023 7.9054 8.79731C7.90529 8.65653 7.84933 8.52154 7.7498 8.42197C7.65027 8.3224 7.5153 8.26639 7.37452 8.26623Z" fill="white"/>
<path d="M4.78763 7.12641C4.60246 7.12641 4.42145 7.07151 4.26748 6.96863C4.11352 6.86576 3.99351 6.71955 3.92264 6.54848C3.85177 6.37741 3.83321 6.18916 3.86932 6.00754C3.90544 5.82593 3.99459 5.6591 4.12551 5.52815C4.25643 5.3972 4.42324 5.30801 4.60485 5.27186C4.78646 5.23571 4.97471 5.25422 5.14579 5.32506C5.31688 5.39589 5.46312 5.51587 5.56603 5.66981C5.66893 5.82375 5.72388 6.00476 5.72392 6.18993C5.72365 6.43818 5.62492 6.67619 5.4494 6.85175C5.27388 7.02732 5.03589 7.12609 4.78763 7.12641ZM4.78763 5.65905C4.68263 5.65905 4.58 5.69018 4.49269 5.74852C4.40539 5.80685 4.33735 5.88976 4.29717 5.98677C4.25698 6.08377 4.24647 6.19052 4.26696 6.2935C4.28744 6.39648 4.338 6.49107 4.41225 6.56531C4.48649 6.63956 4.58108 6.69012 4.68406 6.7106C4.78704 6.73109 4.89379 6.72058 4.99079 6.68039C5.0878 6.64021 5.17071 6.57217 5.22904 6.48487C5.28738 6.39756 5.31851 6.29492 5.31851 6.18993C5.31835 6.04918 5.26237 5.91424 5.16284 5.81472C5.06332 5.71519 4.92838 5.65921 4.78763 5.65905Z" fill="white"/>
</svg>
